# xmcd CD database file
#
# Track frame offsets:
#	150
#	11292
#	22425
#	36340
#	49515
#	63677
#	75250
#	87777
#	102755
#	114625
#	126412
#	140040
#	156885
#	167137
#
# Disc length: 2384 seconds
#
# Revision: 0
# Processed by: cddbd v1.4PL0 Copyright (c) Steve Scherf et al.
# Submitted via: CDex 1.50Beta7
#
DISCID=b9094e0e
DTITLE=Conway Twitty - oh boy
DYEAR=1900
DGENRE=Country
TTITLE0=It's only make believe
TTITLE1=Hello Darlin
TTITLE2=Fifteen years ago
TTITLE3=Danny Boy
TTITLE4=You never been this far before
TTITLE5=To see my angel cry
TTITLE6=This time I hurt her more
TTITLE7=On our last date
TTITLE8=She needs someone to hold
TTITLE9=Lying here with Linda
TTITLE10=Baby's gone
TTITLE11=Dont cry Joni
TTITLE12=She gives it all to me
TTITLE13=I'm not through loving you yet
EXTD=
EXTT0=
EXTT1=
EXTT2=
EXTT3=
EXTT4=
EXTT5=
EXTT6=
EXTT7=
EXTT8=
EXTT9=
EXTT10=
EXTT11=
EXTT12=
EXTT13=
PLAYORDER=
